<mxfile host="app.diagrams.net" modified="2023-10-08T22:12:33.050Z" agent="Mozilla/5.0 (Windows NT 10.0; Win64; x64) AppleWebKit/537.36 (KHTML, like Gecko) Chrome/117.0.0.0 Safari/537.36" etag="e6BtChB-0K2eo5CXB97o" version="22.0.4" type="github">
  <diagram name="PÃ¡gina-1" id="lvRgpD8_sQU63a52YUl1">
    <mxGraphModel dx="1909" dy="1029" grid="1" gridSize="10" guides="1" tooltips="1" connect="1" arrows="1" fold="1" page="1" pageScale="1" pageWidth="827" pageHeight="1169" math="0" shadow="0">
      <root>
        <mxCell id="0" />
        <mxCell id="1" parent="0" />
        <mxCell id="JdnW4GfHlwZGc4hoFdqI-1" value="ChatBot" style="html=1;overflow=block;blockSpacing=1;whiteSpace=wrap;fontSize=13.3;fontColor=#000000;fontStyle=6;align=center;spacing=0;strokeOpacity=0;fillOpacity=100;rounded=1;absoluteArcSize=1;arcSize=12;fillColor=#fa6800;strokeWidth=0.8;strokeColor=#C73500;" vertex="1" parent="1">
          <mxGeometry x="342" y="112" width="143" height="90" as="geometry" />
        </mxCell>
        <mxCell id="JdnW4GfHlwZGc4hoFdqI-2" value="Sistema" style="html=1;overflow=block;blockSpacing=1;whiteSpace=wrap;fontSize=13.3;fontColor=#000000;fontStyle=6;align=center;spacing=0;strokeOpacity=0;fillOpacity=100;rounded=1;absoluteArcSize=1;arcSize=12;fillColor=#fa6800;strokeWidth=0.8;strokeColor=#C73500;" vertex="1" parent="1">
          <mxGeometry x="612" y="112" width="143" height="90" as="geometry" />
        </mxCell>
        <mxCell id="JdnW4GfHlwZGc4hoFdqI-3" value="Alumno" style="html=1;overflow=block;blockSpacing=1;shape=umlActor;labelPosition=center;verticalLabelPosition=bottom;verticalAlign=top;whiteSpace=nowrap;fontSize=13.3;fontColor=#333333;fontStyle=2;align=center;spacing=0;strokeColor=#333333;strokeOpacity=100;fillOpacity=100;rounded=1;absoluteArcSize=1;arcSize=12;fillColor=#ffffff;strokeWidth=0.8;lucidId=Yu5MdgyV5tNR;" vertex="1" parent="1">
          <mxGeometry x="147" y="112" width="60" height="135" as="geometry" />
        </mxCell>
        <mxCell id="JdnW4GfHlwZGc4hoFdqI-4" value="c" style="html=1;jettySize=18;whiteSpace=wrap;fontSize=13;strokeColor=#333333;strokeOpacity=100;strokeWidth=0.8;rounded=1;arcSize=10;edgeStyle=orthogonalEdgeStyle;startArrow=none;endArrow=block;endFill=1;lucidId=Yu5M0A2JVvTe;entryX=-0.001;entryY=0.607;entryDx=0;entryDy=0;entryPerimeter=0;" edge="1" parent="1">
          <mxGeometry width="100" height="100" relative="1" as="geometry">
            <Array as="points">
              <mxPoint x="429" y="317" />
              <mxPoint x="560" y="317" />
              <mxPoint x="560" y="319" />
            </Array>
            <mxPoint x="428.53" y="316" as="sourcePoint" />
            <mxPoint x="668.5" y="318.52599999999995" as="targetPoint" />
          </mxGeometry>
        </mxCell>
        <mxCell id="JdnW4GfHlwZGc4hoFdqI-5" value="EnviarPosiblesTutores()" style="text;html=1;resizable=0;labelBackgroundColor=default;align=center;verticalAlign=middle;fontStyle=2;fontColor=#333333;fontSize=13.3;" vertex="1" parent="JdnW4GfHlwZGc4hoFdqI-4">
          <mxGeometry relative="1" as="geometry">
            <mxPoint as="offset" />
          </mxGeometry>
        </mxCell>
        <mxCell id="JdnW4GfHlwZGc4hoFdqI-6" value="" style="html=1;jettySize=18;whiteSpace=wrap;fontSize=13;strokeColor=#333333;strokeOpacity=100;strokeWidth=0.8;rounded=1;arcSize=10;edgeStyle=orthogonalEdgeStyle;startArrow=none;endArrow=block;endFill=1;lucidId=Yu5M8hheeUyh;entryX=0.042;entryY=0.321;entryDx=0;entryDy=0;entryPerimeter=0;exitX=0.987;exitY=0.722;exitDx=0;exitDy=0;exitPerimeter=0;" edge="1" parent="1" source="JdnW4GfHlwZGc4hoFdqI-42" target="JdnW4GfHlwZGc4hoFdqI-43">
          <mxGeometry width="100" height="100" relative="1" as="geometry">
            <Array as="points">
              <mxPoint x="740" y="360" />
              <mxPoint x="810" y="360" />
            </Array>
            <mxPoint x="937" y="461.91" as="targetPoint" />
            <mxPoint x="700" y="370" as="sourcePoint" />
          </mxGeometry>
        </mxCell>
        <mxCell id="JdnW4GfHlwZGc4hoFdqI-7" value="BuscarPosiblesTutores()" style="text;html=1;resizable=0;labelBackgroundColor=default;align=center;verticalAlign=middle;fontStyle=2;fontColor=#333333;fontSize=13.3;" vertex="1" parent="JdnW4GfHlwZGc4hoFdqI-6">
          <mxGeometry relative="1" as="geometry">
            <mxPoint x="8" y="-10" as="offset" />
          </mxGeometry>
        </mxCell>
        <mxCell id="JdnW4GfHlwZGc4hoFdqI-8" value="" style="html=1;jettySize=18;whiteSpace=wrap;fontSize=13;fontFamily=helvetica;strokeColor=#333333;strokeOpacity=100;dashed=1;fixDash=1;dashPattern=16 6;strokeWidth=0.8;rounded=0;startArrow=none;endArrow=none;exitX=0.5;exitY=1;exitPerimeter=0;entryX=0.5;entryY=0.432;entryPerimeter=0;lucidId=Yu5M4GIAFP0a;" edge="1" parent="1" source="JdnW4GfHlwZGc4hoFdqI-1" target="JdnW4GfHlwZGc4hoFdqI-9">
          <mxGeometry width="100" height="100" relative="1" as="geometry">
            <Array as="points" />
            <mxPoint x="414" y="202" as="sourcePoint" />
            <mxPoint x="413.5" y="811.9200000000003" as="targetPoint" />
          </mxGeometry>
        </mxCell>
        <mxCell id="JdnW4GfHlwZGc4hoFdqI-9" value="" style="html=1;overflow=block;blockSpacing=1;whiteSpace=wrap;fontSize=13;spacing=0;strokeColor=#f2f2f2;strokeOpacity=100;fillOpacity=100;rounded=1;absoluteArcSize=1;arcSize=12;fillColor=#ced4db;strokeWidth=0.8;lucidId=Yu5MhR-oMSno;" vertex="1" parent="1">
          <mxGeometry x="398.5" y="298" width="30" height="88" as="geometry" />
        </mxCell>
        <mxCell id="JdnW4GfHlwZGc4hoFdqI-10" value="" style="html=1;jettySize=18;whiteSpace=wrap;fontSize=13;strokeColor=#333333;strokeOpacity=100;dashed=1;fixDash=1;dashPattern=16 6;strokeWidth=0.8;rounded=1;arcSize=10;edgeStyle=orthogonalEdgeStyle;startArrow=none;endArrow=none;exitX=0.5;exitY=0.532;exitPerimeter=0;lucidId=Yu5Migy3NWk_;" edge="1" parent="1" source="JdnW4GfHlwZGc4hoFdqI-3" target="JdnW4GfHlwZGc4hoFdqI-11">
          <mxGeometry width="100" height="100" relative="1" as="geometry">
            <Array as="points" />
            <mxPoint x="182" y="540" as="targetPoint" />
            <mxPoint x="177" y="212" as="sourcePoint" />
          </mxGeometry>
        </mxCell>
        <mxCell id="JdnW4GfHlwZGc4hoFdqI-11" value="" style="html=1;overflow=block;blockSpacing=1;whiteSpace=wrap;fontSize=13;spacing=0;strokeColor=#f2f2f2;strokeOpacity=100;fillOpacity=100;rounded=1;absoluteArcSize=1;arcSize=12;fillColor=#ced4db;strokeWidth=0.8;lucidId=Yu5MhR-oMSno;" vertex="1" parent="1">
          <mxGeometry x="162" y="316" width="30" height="294" as="geometry" />
        </mxCell>
        <mxCell id="JdnW4GfHlwZGc4hoFdqI-12" value="" style="points=[[1.013,0.586,0]];html=1;overflow=block;blockSpacing=1;whiteSpace=wrap;fontSize=13;spacing=0;strokeColor=#f2f2f2;strokeOpacity=100;fillOpacity=100;rounded=1;absoluteArcSize=1;arcSize=12;fillColor=#ced4db;strokeWidth=0.8;lucidId=Yu5MsRc69goB;" vertex="1" parent="1">
          <mxGeometry x="668.5" y="426" width="30" height="84" as="geometry" />
        </mxCell>
        <mxCell id="JdnW4GfHlwZGc4hoFdqI-15" value="" style="html=1;overflow=block;blockSpacing=1;whiteSpace=wrap;fontSize=13;spacing=0;strokeColor=#f2f2f2;strokeOpacity=100;fillOpacity=100;rounded=1;absoluteArcSize=1;arcSize=12;fillColor=#ced4db;strokeWidth=0.8;lucidId=Yu5MydJHa4al;" vertex="1" parent="1">
          <mxGeometry x="399" y="560" width="30" height="90" as="geometry" />
        </mxCell>
        <mxCell id="JdnW4GfHlwZGc4hoFdqI-16" value="" style="html=1;overflow=block;blockSpacing=1;whiteSpace=wrap;fontSize=13;spacing=0;strokeColor=#f2f2f2;strokeOpacity=100;fillOpacity=100;rounded=1;absoluteArcSize=1;arcSize=12;fillColor=#ced4db;strokeWidth=0.8;lucidId=Yu5MydJHa4al;" vertex="1" parent="1">
          <mxGeometry x="668.5" y="797" width="30" height="113" as="geometry" />
        </mxCell>
        <mxCell id="JdnW4GfHlwZGc4hoFdqI-17" value="" style="endArrow=none;dashed=1;html=1;dashPattern=1 3;strokeWidth=2;rounded=0;entryX=0.5;entryY=1;entryDx=0;entryDy=0;exitX=0.5;exitY=0;exitDx=0;exitDy=0;" edge="1" parent="1" source="JdnW4GfHlwZGc4hoFdqI-20" target="JdnW4GfHlwZGc4hoFdqI-9">
          <mxGeometry width="50" height="50" relative="1" as="geometry">
            <mxPoint x="388.5" y="599" as="sourcePoint" />
            <mxPoint x="438.5" y="549" as="targetPoint" />
          </mxGeometry>
        </mxCell>
        <mxCell id="JdnW4GfHlwZGc4hoFdqI-18" value="" style="endArrow=none;dashed=1;html=1;rounded=0;exitX=0.5;exitY=0;exitDx=0;exitDy=0;" edge="1" parent="1" source="JdnW4GfHlwZGc4hoFdqI-31" target="JdnW4GfHlwZGc4hoFdqI-12">
          <mxGeometry width="50" height="50" relative="1" as="geometry">
            <mxPoint x="636" y="618" as="sourcePoint" />
            <mxPoint x="686" y="568" as="targetPoint" />
          </mxGeometry>
        </mxCell>
        <mxCell id="JdnW4GfHlwZGc4hoFdqI-19" value="" style="endArrow=none;dashed=1;html=1;dashPattern=1 3;strokeWidth=2;rounded=0;entryX=0.5;entryY=1;entryDx=0;entryDy=0;exitX=0.5;exitY=0;exitDx=0;exitDy=0;" edge="1" parent="1" source="JdnW4GfHlwZGc4hoFdqI-15" target="JdnW4GfHlwZGc4hoFdqI-20">
          <mxGeometry width="50" height="50" relative="1" as="geometry">
            <mxPoint x="414" y="601" as="sourcePoint" />
            <mxPoint x="414" y="386" as="targetPoint" />
          </mxGeometry>
        </mxCell>
        <mxCell id="JdnW4GfHlwZGc4hoFdqI-20" value="" style="html=1;overflow=block;blockSpacing=1;whiteSpace=wrap;fontSize=13;spacing=0;strokeColor=#f2f2f2;strokeOpacity=100;fillOpacity=100;rounded=1;absoluteArcSize=1;arcSize=12;fillColor=#ced4db;strokeWidth=0.8;lucidId=Yu5MhR-oMSno;" vertex="1" parent="1">
          <mxGeometry x="398.5" y="426" width="30" height="94" as="geometry" />
        </mxCell>
        <mxCell id="JdnW4GfHlwZGc4hoFdqI-21" value="" style="endArrow=none;dashed=1;html=1;rounded=0;exitX=0.462;exitY=0.019;exitDx=0;exitDy=0;exitPerimeter=0;" edge="1" parent="1" source="JdnW4GfHlwZGc4hoFdqI-12" target="JdnW4GfHlwZGc4hoFdqI-2">
          <mxGeometry width="50" height="50" relative="1" as="geometry">
            <mxPoint x="683.05" y="410" as="sourcePoint" />
            <mxPoint x="683.05" y="378" as="targetPoint" />
          </mxGeometry>
        </mxCell>
        <mxCell id="JdnW4GfHlwZGc4hoFdqI-22" value="" style="html=1;jettySize=18;whiteSpace=wrap;fontSize=13;strokeColor=#333333;strokeOpacity=100;strokeWidth=0.8;rounded=1;arcSize=10;edgeStyle=orthogonalEdgeStyle;startArrow=none;endArrow=block;endFill=1;lucidId=Yu5M0A2JVvTe;" edge="1" parent="1">
          <mxGeometry width="100" height="100" relative="1" as="geometry">
            <Array as="points" />
            <mxPoint x="194.5" y="585" as="sourcePoint" />
            <mxPoint x="398.5" y="586" as="targetPoint" />
          </mxGeometry>
        </mxCell>
        <mxCell id="JdnW4GfHlwZGc4hoFdqI-23" value="Selecciona un tutor" style="text;html=1;resizable=0;labelBackgroundColor=default;align=center;verticalAlign=middle;fontStyle=2;fontColor=#333333;fontSize=13.3;" vertex="1" parent="JdnW4GfHlwZGc4hoFdqI-22">
          <mxGeometry relative="1" as="geometry">
            <mxPoint as="offset" />
          </mxGeometry>
        </mxCell>
        <mxCell id="JdnW4GfHlwZGc4hoFdqI-24" value="" style="html=1;overflow=block;blockSpacing=1;whiteSpace=wrap;fontSize=13;spacing=0;strokeColor=#f2f2f2;strokeOpacity=100;fillOpacity=100;rounded=1;absoluteArcSize=1;arcSize=12;fillColor=#ced4db;strokeWidth=0.8;lucidId=Yu5MydJHa4al;" vertex="1" parent="1">
          <mxGeometry x="398.5" y="680" width="30" height="90" as="geometry" />
        </mxCell>
        <mxCell id="JdnW4GfHlwZGc4hoFdqI-25" value="" style="endArrow=none;dashed=1;html=1;dashPattern=1 3;strokeWidth=2;rounded=0;exitX=0.5;exitY=0;exitDx=0;exitDy=0;" edge="1" parent="1" source="JdnW4GfHlwZGc4hoFdqI-24" target="JdnW4GfHlwZGc4hoFdqI-15">
          <mxGeometry width="50" height="50" relative="1" as="geometry">
            <mxPoint x="412.94000000000005" y="745" as="sourcePoint" />
            <mxPoint x="412.94000000000005" y="697" as="targetPoint" />
          </mxGeometry>
        </mxCell>
        <mxCell id="JdnW4GfHlwZGc4hoFdqI-26" value="" style="html=1;overflow=block;blockSpacing=1;whiteSpace=wrap;fontSize=13;spacing=0;strokeColor=#f2f2f2;strokeOpacity=100;fillOpacity=100;rounded=1;absoluteArcSize=1;arcSize=12;fillColor=#ced4db;strokeWidth=0.8;lucidId=Yu5MydJHa4al;" vertex="1" parent="1">
          <mxGeometry x="399" y="810" width="30" height="90" as="geometry" />
        </mxCell>
        <mxCell id="JdnW4GfHlwZGc4hoFdqI-27" value="" style="endArrow=none;dashed=1;html=1;dashPattern=1 3;strokeWidth=2;rounded=0;exitX=0.5;exitY=0;exitDx=0;exitDy=0;entryX=0.5;entryY=1;entryDx=0;entryDy=0;" edge="1" parent="1" source="JdnW4GfHlwZGc4hoFdqI-26" target="JdnW4GfHlwZGc4hoFdqI-24">
          <mxGeometry width="50" height="50" relative="1" as="geometry">
            <mxPoint x="413.4100000000001" y="832" as="sourcePoint" />
            <mxPoint x="413" y="800" as="targetPoint" />
          </mxGeometry>
        </mxCell>
        <mxCell id="JdnW4GfHlwZGc4hoFdqI-28" value="c" style="html=1;jettySize=18;whiteSpace=wrap;fontSize=13;strokeColor=#333333;strokeOpacity=100;strokeWidth=0.8;rounded=1;arcSize=10;edgeStyle=orthogonalEdgeStyle;startArrow=none;endArrow=block;endFill=1;lucidId=Yu5M0A2JVvTe;exitX=1;exitY=0.5;exitDx=0;exitDy=0;entryX=0.07;entryY=0.497;entryDx=0;entryDy=0;entryPerimeter=0;" edge="1" parent="1">
          <mxGeometry width="100" height="100" relative="1" as="geometry">
            <Array as="points">
              <mxPoint x="637.9" y="854.49" />
            </Array>
            <mxPoint x="426.4" y="854.85" as="sourcePoint" />
            <mxPoint x="668.4999999999999" y="854.6510000000001" as="targetPoint" />
          </mxGeometry>
        </mxCell>
        <mxCell id="JdnW4GfHlwZGc4hoFdqI-29" value="CrearTutoria()" style="edgeLabel;html=1;align=center;verticalAlign=middle;resizable=0;points=[];" vertex="1" connectable="0" parent="JdnW4GfHlwZGc4hoFdqI-28">
          <mxGeometry x="0.1764" y="2" relative="1" as="geometry">
            <mxPoint x="-20" y="2" as="offset" />
          </mxGeometry>
        </mxCell>
        <mxCell id="JdnW4GfHlwZGc4hoFdqI-30" value="" style="endArrow=none;dashed=1;html=1;dashPattern=1 3;strokeWidth=2;rounded=0;entryX=0.5;entryY=0;entryDx=0;entryDy=0;" edge="1" parent="1" source="JdnW4GfHlwZGc4hoFdqI-26" target="JdnW4GfHlwZGc4hoFdqI-61">
          <mxGeometry width="50" height="50" relative="1" as="geometry">
            <mxPoint x="416.00000000000006" y="1029" as="sourcePoint" />
            <mxPoint x="416.00000000000006" y="981" as="targetPoint" />
          </mxGeometry>
        </mxCell>
        <mxCell id="JdnW4GfHlwZGc4hoFdqI-33" value="" style="html=1;jettySize=18;whiteSpace=wrap;fontSize=13;fontFamily=helvetica;strokeColor=#333333;strokeOpacity=100;strokeWidth=0.8;rounded=0;startArrow=none;endArrow=block;endFill=1;exitX=-0.013;exitY=0.589;entryX=1;entryY=0.5;lucidId=Yu5MB3FtIlV_;exitDx=0;exitDy=0;entryDx=0;entryDy=0;exitPerimeter=0;" edge="1" parent="1">
          <mxGeometry width="100" height="100" relative="1" as="geometry">
            <Array as="points" />
            <mxPoint x="666.5000000000001" y="453.17" as="sourcePoint" />
            <mxPoint x="426.5" y="452.67000000000013" as="targetPoint" />
          </mxGeometry>
        </mxCell>
        <mxCell id="JdnW4GfHlwZGc4hoFdqI-34" value="Se encuentran posibles tutores" style="text;html=1;resizable=0;labelBackgroundColor=default;align=center;verticalAlign=middle;fontStyle=2;fontColor=#333333;fontSize=13.3;" vertex="1" parent="1">
          <mxGeometry x="551.3885558324728" y="452.1633376379536" as="geometry" />
        </mxCell>
        <mxCell id="JdnW4GfHlwZGc4hoFdqI-35" value="" style="endArrow=none;dashed=1;html=1;dashPattern=1 3;strokeWidth=2;rounded=0;entryX=0.5;entryY=1;entryDx=0;entryDy=0;" edge="1" parent="1" source="JdnW4GfHlwZGc4hoFdqI-16">
          <mxGeometry width="50" height="50" relative="1" as="geometry">
            <mxPoint x="682.9100000000001" y="1025" as="sourcePoint" />
            <mxPoint x="682.9100000000001" y="977" as="targetPoint" />
          </mxGeometry>
        </mxCell>
        <mxCell id="JdnW4GfHlwZGc4hoFdqI-36" value="Base de datos" style="html=1;overflow=block;blockSpacing=1;whiteSpace=wrap;fontSize=13.3;fontColor=#000000;fontStyle=6;align=center;spacing=0;strokeOpacity=0;fillOpacity=100;rounded=1;absoluteArcSize=1;arcSize=12;fillColor=#fa6800;strokeWidth=0.8;strokeColor=#C73500;" vertex="1" parent="1">
          <mxGeometry x="902" y="112" width="143" height="90" as="geometry" />
        </mxCell>
        <mxCell id="JdnW4GfHlwZGc4hoFdqI-37" value="" style="endArrow=none;dashed=1;html=1;rounded=0;exitX=0.5;exitY=1;exitDx=0;exitDy=0;entryX=0.5;entryY=1;entryDx=0;entryDy=0;" edge="1" parent="1" source="JdnW4GfHlwZGc4hoFdqI-43" target="JdnW4GfHlwZGc4hoFdqI-36">
          <mxGeometry width="50" height="50" relative="1" as="geometry">
            <mxPoint x="979" y="1198.0000000000002" as="sourcePoint" />
            <mxPoint x="974" y="247" as="targetPoint" />
          </mxGeometry>
        </mxCell>
        <mxCell id="JdnW4GfHlwZGc4hoFdqI-40" value="" style="html=1;overflow=block;blockSpacing=1;whiteSpace=wrap;fontSize=13;spacing=0;strokeColor=#f2f2f2;strokeOpacity=100;fillOpacity=100;rounded=1;absoluteArcSize=1;arcSize=12;fillColor=#ced4db;strokeWidth=0.8;lucidId=Yu5MydJHa4al;" vertex="1" parent="1">
          <mxGeometry x="958.5" y="820" width="30" height="113" as="geometry" />
        </mxCell>
        <mxCell id="JdnW4GfHlwZGc4hoFdqI-42" value="" style="points=[[1.013,0.586,0]];html=1;overflow=block;blockSpacing=1;whiteSpace=wrap;fontSize=13;spacing=0;strokeColor=#f2f2f2;strokeOpacity=100;fillOpacity=100;rounded=1;absoluteArcSize=1;arcSize=12;fillColor=#ced4db;strokeWidth=0.8;lucidId=Yu5MsRc69goB;" vertex="1" parent="1">
          <mxGeometry x="668.5" y="260" width="30" height="138" as="geometry" />
        </mxCell>
        <mxCell id="JdnW4GfHlwZGc4hoFdqI-44" value="" style="endArrow=none;dashed=1;html=1;rounded=0;exitX=0.5;exitY=1;exitDx=0;exitDy=0;entryX=0.5;entryY=1;entryDx=0;entryDy=0;" edge="1" parent="1" source="JdnW4GfHlwZGc4hoFdqI-40" target="JdnW4GfHlwZGc4hoFdqI-43">
          <mxGeometry width="50" height="50" relative="1" as="geometry">
            <mxPoint x="979" y="1023" as="sourcePoint" />
            <mxPoint x="974" y="202" as="targetPoint" />
          </mxGeometry>
        </mxCell>
        <mxCell id="JdnW4GfHlwZGc4hoFdqI-43" value="" style="points=[[1.013,0.586,0]];html=1;overflow=block;blockSpacing=1;whiteSpace=wrap;fontSize=13;spacing=0;strokeColor=#f2f2f2;strokeOpacity=100;fillOpacity=100;rounded=1;absoluteArcSize=1;arcSize=12;fillColor=#ced4db;strokeWidth=0.8;lucidId=Yu5MsRc69goB;" vertex="1" parent="1">
          <mxGeometry x="964" y="316" width="30" height="138" as="geometry" />
        </mxCell>
        <mxCell id="JdnW4GfHlwZGc4hoFdqI-45" value="" style="html=1;jettySize=18;whiteSpace=wrap;fontSize=13;fontFamily=helvetica;strokeColor=#333333;strokeOpacity=100;strokeWidth=0.8;rounded=0;startArrow=none;endArrow=block;endFill=1;exitX=-0.013;exitY=0.589;entryX=1.023;entryY=0.328;lucidId=Yu5MB3FtIlV_;exitDx=0;exitDy=0;entryDx=0;entryDy=0;entryPerimeter=0;exitPerimeter=0;" edge="1" parent="1" source="JdnW4GfHlwZGc4hoFdqI-46">
          <mxGeometry width="100" height="100" relative="1" as="geometry">
            <Array as="points" />
            <mxPoint x="397.8100000000001" y="495.34" as="sourcePoint" />
            <mxPoint x="191.99999999999994" y="494.55" as="targetPoint" />
          </mxGeometry>
        </mxCell>
        <mxCell id="JdnW4GfHlwZGc4hoFdqI-48" value="" style="html=1;jettySize=18;whiteSpace=wrap;fontSize=13;fontFamily=helvetica;strokeColor=#333333;strokeOpacity=100;strokeWidth=0.8;rounded=0;startArrow=none;endArrow=block;endFill=1;exitX=-0.013;exitY=0.589;entryX=1.023;entryY=0.328;lucidId=Yu5MB3FtIlV_;exitDx=0;exitDy=0;entryDx=0;entryDy=0;entryPerimeter=0;exitPerimeter=0;" edge="1" parent="1" target="JdnW4GfHlwZGc4hoFdqI-46">
          <mxGeometry width="100" height="100" relative="1" as="geometry">
            <Array as="points" />
            <mxPoint x="398.5000000000001" y="495.34" as="sourcePoint" />
            <mxPoint x="192.68999999999994" y="494.55" as="targetPoint" />
          </mxGeometry>
        </mxCell>
        <mxCell id="JdnW4GfHlwZGc4hoFdqI-46" value="Se manda notificacion" style="text;html=1;resizable=0;labelBackgroundColor=default;align=center;verticalAlign=middle;fontStyle=2;fontColor=#333333;fontSize=13.3;" vertex="1" parent="1">
          <mxGeometry x="300.6885558324728" y="494.33333763795355" as="geometry" />
        </mxCell>
        <mxCell id="JdnW4GfHlwZGc4hoFdqI-49" value="" style="html=1;jettySize=18;whiteSpace=wrap;fontSize=13;strokeColor=#333333;strokeOpacity=100;dashed=1;fixDash=1;dashPattern=16 6;strokeWidth=0.8;rounded=1;arcSize=10;edgeStyle=orthogonalEdgeStyle;startArrow=none;endArrow=none;exitX=0.5;exitY=0.532;exitPerimeter=0;lucidId=Yu5Migy3NWk_;" edge="1" source="JdnW4GfHlwZGc4hoFdqI-50" target="JdnW4GfHlwZGc4hoFdqI-51" parent="1">
          <mxGeometry width="100" height="100" relative="1" as="geometry">
            <Array as="points">
              <mxPoint x="90" y="784" />
              <mxPoint x="90" y="784" />
            </Array>
            <mxPoint x="95" y="844" as="targetPoint" />
            <mxPoint x="90" y="516" as="sourcePoint" />
          </mxGeometry>
        </mxCell>
        <mxCell id="JdnW4GfHlwZGc4hoFdqI-50" value="Tutor" style="html=1;overflow=block;blockSpacing=1;shape=umlActor;labelPosition=center;verticalLabelPosition=bottom;verticalAlign=top;whiteSpace=nowrap;fontSize=13.3;fontColor=#333333;fontStyle=2;align=center;spacing=0;strokeColor=#333333;strokeOpacity=100;fillOpacity=100;rounded=1;absoluteArcSize=1;arcSize=12;fillColor=#ffffff;strokeWidth=0.8;lucidId=Yu5MdgyV5tNR;" vertex="1" parent="1">
          <mxGeometry x="60" y="1050" width="60" height="135" as="geometry" />
        </mxCell>
        <mxCell id="JdnW4GfHlwZGc4hoFdqI-51" value="" style="html=1;overflow=block;blockSpacing=1;whiteSpace=wrap;fontSize=13;spacing=0;strokeColor=#f2f2f2;strokeOpacity=100;fillOpacity=100;rounded=1;absoluteArcSize=1;arcSize=12;fillColor=#ced4db;strokeWidth=0.8;lucidId=Yu5MhR-oMSno;" vertex="1" parent="1">
          <mxGeometry x="75" y="941.5" width="30" height="50" as="geometry" />
        </mxCell>
        <mxCell id="JdnW4GfHlwZGc4hoFdqI-54" value="" style="html=1;jettySize=18;whiteSpace=wrap;fontSize=13;strokeColor=#333333;strokeOpacity=100;strokeWidth=0.8;rounded=1;arcSize=10;edgeStyle=orthogonalEdgeStyle;startArrow=none;endArrow=block;endFill=1;lucidId=Yu5M0A2JVvTe;entryX=0.032;entryY=0.349;entryDx=0;entryDy=0;entryPerimeter=0;" edge="1" parent="1">
          <mxGeometry width="100" height="100" relative="1" as="geometry">
            <Array as="points" />
            <mxPoint x="428.5" y="620.59" as="sourcePoint" />
            <mxPoint x="665.96" y="619.9999999999999" as="targetPoint" />
          </mxGeometry>
        </mxCell>
        <mxCell id="JdnW4GfHlwZGc4hoFdqI-55" value="EnviarPropuestaTutoria()" style="text;html=1;resizable=0;labelBackgroundColor=default;align=center;verticalAlign=middle;fontStyle=2;fontColor=#333333;fontSize=13.3;" vertex="1" parent="JdnW4GfHlwZGc4hoFdqI-54">
          <mxGeometry relative="1" as="geometry">
            <mxPoint as="offset" />
          </mxGeometry>
        </mxCell>
        <mxCell id="JdnW4GfHlwZGc4hoFdqI-56" value="" style="endArrow=none;dashed=1;html=1;rounded=0;exitX=0.5;exitY=0;exitDx=0;exitDy=0;" edge="1" parent="1" source="JdnW4GfHlwZGc4hoFdqI-16" target="JdnW4GfHlwZGc4hoFdqI-31">
          <mxGeometry width="50" height="50" relative="1" as="geometry">
            <mxPoint x="684" y="872" as="sourcePoint" />
            <mxPoint x="684" y="510" as="targetPoint" />
          </mxGeometry>
        </mxCell>
        <mxCell id="JdnW4GfHlwZGc4hoFdqI-31" value="" style="html=1;overflow=block;blockSpacing=1;whiteSpace=wrap;fontSize=13;spacing=0;strokeColor=#f2f2f2;strokeOpacity=100;fillOpacity=100;rounded=1;absoluteArcSize=1;arcSize=12;fillColor=#ced4db;strokeWidth=0.8;lucidId=Yu5MydJHa4al;" vertex="1" parent="1">
          <mxGeometry x="668.5" y="560" width="30" height="90" as="geometry" />
        </mxCell>
        <mxCell id="JdnW4GfHlwZGc4hoFdqI-57" value="Se manda notificacion" style="text;html=1;resizable=0;labelBackgroundColor=default;align=center;verticalAlign=middle;fontStyle=2;fontColor=#333333;fontSize=13.3;" vertex="1" parent="1">
          <mxGeometry x="249.9985558324728" y="710.0033376379536" as="geometry" />
        </mxCell>
        <mxCell id="JdnW4GfHlwZGc4hoFdqI-58" value="" style="html=1;jettySize=18;whiteSpace=wrap;fontSize=13;fontFamily=helvetica;strokeColor=#333333;strokeOpacity=100;strokeWidth=0.8;rounded=0;startArrow=none;endArrow=block;endFill=1;lucidId=Yu5MB3FtIlV_;exitX=0;exitY=0.5;exitDx=0;exitDy=0;" edge="1" parent="1" source="JdnW4GfHlwZGc4hoFdqI-24">
          <mxGeometry width="100" height="100" relative="1" as="geometry">
            <Array as="points" />
            <mxPoint x="390" y="725" as="sourcePoint" />
            <mxPoint x="110" y="725" as="targetPoint" />
          </mxGeometry>
        </mxCell>
        <mxCell id="JdnW4GfHlwZGc4hoFdqI-59" value="" style="html=1;jettySize=18;whiteSpace=wrap;fontSize=13;strokeColor=#333333;strokeOpacity=100;strokeWidth=0.8;rounded=1;arcSize=10;edgeStyle=orthogonalEdgeStyle;startArrow=none;endArrow=block;endFill=1;lucidId=Yu5M0A2JVvTe;" edge="1" parent="1">
          <mxGeometry width="100" height="100" relative="1" as="geometry">
            <Array as="points" />
            <mxPoint x="105" y="840" as="sourcePoint" />
            <mxPoint x="383.5" y="840" as="targetPoint" />
          </mxGeometry>
        </mxCell>
        <mxCell id="JdnW4GfHlwZGc4hoFdqI-60" value="Acepta Tutoria" style="text;html=1;resizable=0;labelBackgroundColor=default;align=center;verticalAlign=middle;fontStyle=2;fontColor=#333333;fontSize=13.3;" vertex="1" parent="JdnW4GfHlwZGc4hoFdqI-59">
          <mxGeometry relative="1" as="geometry">
            <mxPoint as="offset" />
          </mxGeometry>
        </mxCell>
        <mxCell id="JdnW4GfHlwZGc4hoFdqI-61" value="" style="html=1;overflow=block;blockSpacing=1;whiteSpace=wrap;fontSize=13;spacing=0;strokeColor=#f2f2f2;strokeOpacity=100;fillOpacity=100;rounded=1;absoluteArcSize=1;arcSize=12;fillColor=#ced4db;strokeWidth=0.8;lucidId=Yu5MydJHa4al;" vertex="1" parent="1">
          <mxGeometry x="399" y="933" width="30" height="90" as="geometry" />
        </mxCell>
        <mxCell id="JdnW4GfHlwZGc4hoFdqI-62" value="" style="html=1;jettySize=18;whiteSpace=wrap;fontSize=13;strokeColor=#333333;strokeOpacity=100;strokeWidth=0.8;rounded=1;arcSize=10;edgeStyle=orthogonalEdgeStyle;startArrow=none;endArrow=block;endFill=1;lucidId=Yu5M0A2JVvTe;exitX=0.947;exitY=0.693;exitDx=0;exitDy=0;exitPerimeter=0;" edge="1" parent="1">
          <mxGeometry width="100" height="100" relative="1" as="geometry">
            <Array as="points" />
            <mxPoint x="105" y="960" as="sourcePoint" />
            <mxPoint x="400.5" y="960" as="targetPoint" />
          </mxGeometry>
        </mxCell>
        <mxCell id="JdnW4GfHlwZGc4hoFdqI-63" value="Rechaza Tutoria" style="text;html=1;resizable=0;labelBackgroundColor=default;align=center;verticalAlign=middle;fontStyle=2;fontColor=#333333;fontSize=13.3;" vertex="1" parent="JdnW4GfHlwZGc4hoFdqI-62">
          <mxGeometry relative="1" as="geometry">
            <mxPoint as="offset" />
          </mxGeometry>
        </mxCell>
        <mxCell id="JdnW4GfHlwZGc4hoFdqI-64" value="" style="html=1;overflow=block;blockSpacing=1;whiteSpace=wrap;fontSize=13;spacing=0;strokeColor=#f2f2f2;strokeOpacity=100;fillOpacity=100;rounded=1;absoluteArcSize=1;arcSize=12;fillColor=#ced4db;strokeWidth=0.8;lucidId=Yu5MhR-oMSno;" vertex="1" parent="1">
          <mxGeometry x="75" y="700" width="30" height="170" as="geometry" />
        </mxCell>
        <mxCell id="JdnW4GfHlwZGc4hoFdqI-65" value="" style="html=1;overflow=block;blockSpacing=1;whiteSpace=wrap;fontSize=13;spacing=0;strokeColor=#f2f2f2;strokeOpacity=100;fillOpacity=100;rounded=1;absoluteArcSize=1;arcSize=12;fillColor=#ced4db;strokeWidth=0.8;lucidId=Yu5MydJHa4al;" vertex="1" parent="1">
          <mxGeometry x="668.5" y="950" width="30" height="70" as="geometry" />
        </mxCell>
        <mxCell id="JdnW4GfHlwZGc4hoFdqI-66" value="" style="html=1;jettySize=18;whiteSpace=wrap;fontSize=13;strokeColor=#333333;strokeOpacity=100;strokeWidth=0.8;rounded=1;arcSize=10;edgeStyle=orthogonalEdgeStyle;startArrow=none;endArrow=block;endFill=1;lucidId=Yu5M0A2JVvTe;" edge="1" parent="1">
          <mxGeometry width="100" height="100" relative="1" as="geometry">
            <Array as="points" />
            <mxPoint x="430" y="1000" as="sourcePoint" />
            <mxPoint x="668.5" y="1000" as="targetPoint" />
          </mxGeometry>
        </mxCell>
        <mxCell id="JdnW4GfHlwZGc4hoFdqI-67" value="EnviarPosiblesTutores()" style="text;html=1;resizable=0;labelBackgroundColor=default;align=center;verticalAlign=middle;fontStyle=2;fontColor=#333333;fontSize=13.3;" vertex="1" parent="JdnW4GfHlwZGc4hoFdqI-66">
          <mxGeometry relative="1" as="geometry">
            <mxPoint as="offset" />
          </mxGeometry>
        </mxCell>
        <mxCell id="JdnW4GfHlwZGc4hoFdqI-68" value="c" style="html=1;jettySize=18;whiteSpace=wrap;fontSize=13;strokeColor=#333333;strokeOpacity=100;strokeWidth=0.8;rounded=1;arcSize=10;edgeStyle=orthogonalEdgeStyle;startArrow=none;endArrow=block;endFill=1;lucidId=Yu5M0A2JVvTe;exitX=1;exitY=0.5;exitDx=0;exitDy=0;" edge="1" parent="1">
          <mxGeometry width="100" height="100" relative="1" as="geometry">
            <Array as="points">
              <mxPoint x="910" y="879.84" />
            </Array>
            <mxPoint x="698.5" y="880.2" as="sourcePoint" />
            <mxPoint x="950" y="880" as="targetPoint" />
          </mxGeometry>
        </mxCell>
        <mxCell id="JdnW4GfHlwZGc4hoFdqI-69" value="Guardar en la Base de Datos" style="edgeLabel;html=1;align=center;verticalAlign=middle;resizable=0;points=[];" vertex="1" connectable="0" parent="JdnW4GfHlwZGc4hoFdqI-68">
          <mxGeometry x="0.1764" y="2" relative="1" as="geometry">
            <mxPoint x="-20" y="2" as="offset" />
          </mxGeometry>
        </mxCell>
      </root>
    </mxGraphModel>
  </diagram>
</mxfile>
